<svg xmlns="http://www.w3.org/2000/svg" viewBox="0 0 128 128">
  <defs>
    <linearGradient id="bg" x1="18" y1="10" x2="112" y2="120" gradientUnits="userSpaceOnUse">
      <stop offset="0" stop-color="#f7c98d"/>
      <stop offset="0.46" stop-color="#efddd0"/>
      <stop offset="1" stop-color="#5fa07e"/>
    </linearGradient>
    <linearGradient id="paper" x1="39" y1="22" x2="88" y2="104" gradientUnits="userSpaceOnUse">
      <stop offset="0" stop-color="#fffaf0"/>
      <stop offset="1" stop-color="#f4e5d0"/>
    </linearGradient>
    <linearGradient id="leaf" x1="83" y1="85" x2="107" y2="58" gradientUnits="userSpaceOnUse">
      <stop offset="0" stop-color="#4f8d73"/>
      <stop offset="1" stop-color="#8bd0a3"/>
    </linearGradient>
    <filter id="shadow" x="-25%" y="-20%" width="150%" height="150%">
      <feDropShadow dx="0" dy="10" stdDeviation="9" flood-color="#3b5d4f" flood-opacity="0.25"/>
    </filter>
  </defs>
  <rect width="128" height="128" rx="34" fill="url(#bg)"/>
  <rect x="32" y="22" width="61" height="82" rx="19" fill="url(#paper)" stroke="#fffdf7" stroke-width="3.5" filter="url(#shadow)"/>
  <path d="M76 22v18c0 5.4 4.4 9.8 9.8 9.8H93" fill="none" stroke="#9a8266" stroke-width="4.2" stroke-linecap="round" stroke-linejoin="round" opacity="0.43"/>
  <circle cx="47" cy="48" r="5.2" fill="#f0b268" stroke="#fff8ec" stroke-width="2"/>
  <circle cx="47" cy="66" r="5.2" fill="#7ab88c" stroke="#fff8ec" stroke-width="2"/>
  <path d="M61 48h17M61 66h23" fill="none" stroke="#5d735e" stroke-width="5.5" stroke-linecap="round" opacity="0.72"/>
  <path d="M45 85l12 11.5 27-33" fill="none" stroke="#4f8d73" stroke-width="9" stroke-linecap="round" stroke-linejoin="round"/>
  <path d="M92 86c12-3.3 18.4-12.9 17.7-25-13.1.6-22.4 7.4-25.6 19.6 3 .9 5.7 2.7 7.9 5.4z" fill="url(#leaf)" stroke="#fff8ec" stroke-width="2.2" stroke-linejoin="round"/>
</svg>
